<svg width="41" height="41" viewBox="0 0 41 41" fill="none" xmlns="http://www.w3.org/2000/svg">
<path fill-rule="evenodd" clip-rule="evenodd" d="M40.7843 12.578C40.6326 9.37367 39.9008 6.53534 37.5539 4.19683C35.2159 1.85833 32.3782 1.12643 29.1747 0.965773C25.8729 0.778336 15.9767 0.778336 12.6749 0.965773C9.4803 1.11751 6.6426 1.84941 4.29569 4.18791C1.94879 6.52641 1.22598 9.36475 1.06535 12.569C0.877956 15.8715 0.877956 25.77 1.06535 29.0724C1.21705 32.2767 1.94879 35.1151 4.29569 37.4536C6.6426 39.7921 9.47137 40.524 12.6749 40.6846C15.9767 40.8721 25.8729 40.8721 29.1747 40.6846C32.3782 40.5329 35.2159 39.801 37.5539 37.4536C39.8919 35.1151 40.6236 32.2767 40.7843 29.0724C40.9717 25.77 40.9717 15.8804 40.7843 12.578ZM31.6019 12.5423C32.9226 12.5423 33.9934 11.4801 33.9934 10.1502C33.9934 8.82921 32.9226 7.75814 31.6019 7.75814C30.2812 7.75814 29.2104 8.82921 29.2104 10.1502C29.2104 11.4712 30.2723 12.5423 31.6019 12.5423ZM20.9293 10.5697C15.2539 10.5697 10.6761 15.1485 10.6761 20.8252C10.6761 26.5019 15.2539 31.0807 20.9293 31.0807C26.6047 31.0807 31.1825 26.5019 31.1825 20.8252C31.1825 15.1485 26.6047 10.5697 20.9293 10.5697ZM20.9293 27.4926C17.2617 27.4926 14.2633 24.5025 14.2633 20.8252C14.2633 17.1479 17.2527 14.1578 20.9293 14.1578C24.6058 14.1578 27.5952 17.1479 27.5952 20.8252C27.5952 24.5025 24.5969 27.4926 20.9293 27.4926ZM32.7173 36.4182C34.4753 35.7131 35.8227 34.3653 36.5188 32.6159C37.4143 30.3651 37.3644 25.4418 37.3321 22.2503C37.3268 21.7209 37.3219 21.2392 37.3219 20.8252C37.3219 20.4111 37.3268 19.9295 37.3321 19.4002C37.3645 16.2105 37.4143 11.2929 36.5188 9.0345C35.8138 7.27616 34.4664 5.9284 32.7173 5.2322C30.46 4.34135 25.5139 4.38881 22.3241 4.41941C21.8066 4.42438 21.3353 4.4289 20.9293 4.4289C20.5153 4.4289 20.0337 4.42402 19.5046 4.41866C16.3156 4.38634 11.3991 4.33651 9.1412 5.2322C7.38325 5.93732 6.03579 7.28509 5.33975 9.0345C4.4491 11.2923 4.49655 16.2395 4.52714 19.4301C4.53211 19.9477 4.53663 20.419 4.53663 20.8252C4.53663 21.2393 4.53175 21.7209 4.52639 22.2502C4.49408 25.4399 4.44426 30.3575 5.33975 32.6159C6.04472 34.3742 7.39218 35.722 9.1412 36.4182C11.3985 37.309 16.3446 37.2616 19.5345 37.231C20.0519 37.226 20.5232 37.2215 20.9293 37.2215C21.3432 37.2215 21.8248 37.2264 22.3539 37.2317C25.543 37.264 30.4595 37.3139 32.7173 36.4182Z" fill="white"/>
<mask id="mask0_30_23589" style="mask-type:alpha" maskUnits="userSpaceOnUse" x="0" y="0" width="41" height="41">
<path fill-rule="evenodd" clip-rule="evenodd" d="M40.7843 12.578C40.6326 9.37367 39.9008 6.53534 37.5539 4.19683C35.2159 1.85833 32.3782 1.12643 29.1747 0.965773C25.8729 0.778336 15.9767 0.778336 12.6749 0.965773C9.4803 1.11751 6.6426 1.84941 4.29569 4.18791C1.94879 6.52641 1.22598 9.36475 1.06535 12.569C0.877956 15.8715 0.877956 25.77 1.06535 29.0724C1.21705 32.2767 1.94879 35.1151 4.29569 37.4536C6.6426 39.7921 9.47137 40.524 12.6749 40.6846C15.9767 40.8721 25.8729 40.8721 29.1747 40.6846C32.3782 40.5329 35.2159 39.801 37.5539 37.4536C39.8919 35.1151 40.6236 32.2767 40.7843 29.0724C40.9717 25.77 40.9717 15.8804 40.7843 12.578ZM31.6019 12.5423C32.9226 12.5423 33.9934 11.4801 33.9934 10.1502C33.9934 8.82921 32.9226 7.75814 31.6019 7.75814C30.2812 7.75814 29.2104 8.82921 29.2104 10.1502C29.2104 11.4712 30.2723 12.5423 31.6019 12.5423ZM20.9293 10.5697C15.2539 10.5697 10.6761 15.1485 10.6761 20.8252C10.6761 26.5019 15.2539 31.0807 20.9293 31.0807C26.6047 31.0807 31.1825 26.5019 31.1825 20.8252C31.1825 15.1485 26.6047 10.5697 20.9293 10.5697ZM20.9293 27.4926C17.2617 27.4926 14.2633 24.5025 14.2633 20.8252C14.2633 17.1479 17.2527 14.1578 20.9293 14.1578C24.6058 14.1578 27.5952 17.1479 27.5952 20.8252C27.5952 24.5025 24.5969 27.4926 20.9293 27.4926ZM32.7173 36.4182C34.4753 35.7131 35.8227 34.3653 36.5188 32.6159C37.4143 30.3651 37.3644 25.4418 37.3321 22.2503C37.3268 21.7209 37.3219 21.2392 37.3219 20.8252C37.3219 20.4111 37.3268 19.9295 37.3321 19.4002C37.3645 16.2105 37.4143 11.2929 36.5188 9.0345C35.8138 7.27616 34.4664 5.9284 32.7173 5.2322C30.46 4.34135 25.5139 4.38881 22.3241 4.41941C21.8066 4.42438 21.3353 4.4289 20.9293 4.4289C20.5153 4.4289 20.0337 4.42402 19.5046 4.41866C16.3156 4.38634 11.3991 4.33651 9.1412 5.2322C7.38325 5.93732 6.03579 7.28509 5.33975 9.0345C4.4491 11.2923 4.49655 16.2395 4.52714 19.4301C4.53211 19.9477 4.53663 20.419 4.53663 20.8252C4.53663 21.2393 4.53175 21.7209 4.52639 22.2502C4.49408 25.4399 4.44426 30.3575 5.33975 32.6159C6.04472 34.3742 7.39218 35.722 9.1412 36.4182C11.3985 37.309 16.3446 37.2616 19.5345 37.231C20.0519 37.226 20.5232 37.2215 20.9293 37.2215C21.3432 37.2215 21.8248 37.2264 22.3539 37.2317C25.543 37.264 30.4595 37.3139 32.7173 36.4182Z" fill="white"/>
</mask>
<g mask="url(#mask0_30_23589)">
<rect x="1" y="1" width="40" height="40" fill="white"/>
</g>
</svg>
