<svg width="40" height="40" viewBox="0 0 40 40" fill="none" xmlns="http://www.w3.org/2000/svg">
<path fill-rule="evenodd" clip-rule="evenodd" d="M2.84821 0H37.1429C38.7143 0 40 1.29464 40 2.88393V37.1161C40 38.7054 38.7143 40 37.1429 40H2.84821C1.27679 40 0 38.7054 0 37.1161V2.88393C0 1.29464 1.27679 0 2.84821 0ZM12.0893 34.2857H12.0982V15.1964H6.16071V34.2857H12.0893ZM9.125 12.5893C7.22321 12.5893 5.6875 11.0446 5.6875 9.15179C5.6875 7.25893 7.22321 5.71429 9.125 5.71429C11.0179 5.71429 12.5625 7.25893 12.5625 9.15179C12.5625 11.0536 11.0268 12.5893 9.125 12.5893ZM28.3839 34.2857H34.3125V23.8214C34.3125 18.6786 33.1964 14.7232 27.1964 14.7232C24.3125 14.7232 22.375 16.3036 21.5804 17.8036H21.5V15.1964H15.8125V34.2857H21.7411V24.8393C21.7411 22.3482 22.2143 19.9375 25.3036 19.9375C28.3393 19.9375 28.3839 22.7857 28.3839 25V34.2857Z" fill="#001E79"/>
<mask id="mask0_30_23577" style="mask-type:alpha" maskUnits="userSpaceOnUse" x="0" y="0" width="40" height="40">
<path fill-rule="evenodd" clip-rule="evenodd" d="M2.84821 0H37.1429C38.7143 0 40 1.29464 40 2.88393V37.1161C40 38.7054 38.7143 40 37.1429 40H2.84821C1.27679 40 0 38.7054 0 37.1161V2.88393C0 1.29464 1.27679 0 2.84821 0ZM12.0893 34.2857H12.0982V15.1964H6.16071V34.2857H12.0893ZM9.125 12.5893C7.22321 12.5893 5.6875 11.0446 5.6875 9.15179C5.6875 7.25893 7.22321 5.71429 9.125 5.71429C11.0179 5.71429 12.5625 7.25893 12.5625 9.15179C12.5625 11.0536 11.0268 12.5893 9.125 12.5893ZM28.3839 34.2857H34.3125V23.8214C34.3125 18.6786 33.1964 14.7232 27.1964 14.7232C24.3125 14.7232 22.375 16.3036 21.5804 17.8036H21.5V15.1964H15.8125V34.2857H21.7411V24.8393C21.7411 22.3482 22.2143 19.9375 25.3036 19.9375C28.3393 19.9375 28.3839 22.7857 28.3839 25V34.2857Z" fill="white"/>
</mask>
<g mask="url(#mask0_30_23577)">
<rect width="40" height="40" fill="white"/>
</g>
</svg>
