<svg width="40" height="40" viewBox="0 0 40 40" fill="none" xmlns="http://www.w3.org/2000/svg">
<path fill-rule="evenodd" clip-rule="evenodd" d="M40 20C40 8.95429 31.0457 0 20 0C8.95429 0 0 8.95429 0 20C0 29.8656 7.14357 38.0621 16.5402 39.7009V26.4009H10.9152V20H16.5402V15.1214C16.5402 9.57232 19.8438 6.50714 24.9036 6.50714C27.3268 6.50714 29.8607 6.93929 29.8607 6.93929V12.3857H27.0688C24.3179 12.3857 23.4598 14.0929 23.4598 15.8438V20H29.6009L28.6187 26.4009H23.4598V39.7009C32.8564 38.0621 40 29.8656 40 20" fill="#001E79"/>
<mask id="mask0_30_23565" style="mask-type:alpha" maskUnits="userSpaceOnUse" x="0" y="0" width="40" height="40">
<path fill-rule="evenodd" clip-rule="evenodd" d="M40 20C40 8.95429 31.0457 0 20 0C8.95429 0 0 8.95429 0 20C0 29.8656 7.14357 38.0621 16.5402 39.7009V26.4009H10.9152V20H16.5402V15.1214C16.5402 9.57232 19.8438 6.50714 24.9036 6.50714C27.3268 6.50714 29.8607 6.93929 29.8607 6.93929V12.3857H27.0688C24.3179 12.3857 23.4598 14.0929 23.4598 15.8438V20H29.6009L28.6187 26.4009H23.4598V39.7009C32.8564 38.0621 40 29.8656 40 20" fill="white"/>
</mask>
<g mask="url(#mask0_30_23565)">
<rect width="40" height="40" fill="white"/>
</g>
</svg>
