<svg width="28" height="40" viewBox="0 0 28 40" fill="none" xmlns="http://www.w3.org/2000/svg">
<path fill-rule="evenodd" clip-rule="evenodd" d="M22.394 34.2814H0C0 37.4204 2.49841 40 5.60615 40H22.3939C25.4713 40 28 37.4516 28 34.2814V10.8158C28 10.6916 27.9086 10.5984 27.7868 10.5984H22.6072C22.4855 10.5984 22.3939 10.6916 22.3939 10.8158V34.2814H22.394ZM22.394 0C25.4713 0 28 2.54861 28 5.71879H5.60615V29.1532C5.60615 29.2774 5.51474 29.3707 5.39279 29.3707H0.213353C0.0914098 29.3707 0 29.2774 0 29.1532V5.71879C0 2.57956 2.49841 0 5.60615 0H22.394V0Z" fill="#FFFFFE"/>
<mask id="mask0_30_23569" style="mask-type:alpha" maskUnits="userSpaceOnUse" x="0" y="0" width="28" height="40">
<path fill-rule="evenodd" clip-rule="evenodd" d="M22.394 34.2814H0C0 37.4204 2.49841 40 5.60615 40H22.3939C25.4713 40 28 37.4516 28 34.2814V10.8158C28 10.6916 27.9086 10.5984 27.7868 10.5984H22.6072C22.4855 10.5984 22.3939 10.6916 22.3939 10.8158V34.2814H22.394ZM22.394 0C25.4713 0 28 2.54861 28 5.71879H5.60615V29.1532C5.60615 29.2774 5.51474 29.3707 5.39279 29.3707H0.213353C0.0914098 29.3707 0 29.2774 0 29.1532V5.71879C0 2.57956 2.49841 0 5.60615 0H22.394V0Z" fill="white"/>
</mask>
<g mask="url(#mask0_30_23569)">
<rect x="-6" width="40" height="40" fill="white"/>
</g>
</svg>
